<svg width="285" height="264" viewBox="0 0 285 264" fill="none" xmlns="http://www.w3.org/2000/svg">
<path d="M11.8918 113.604C16.1365 118.006 21.8939 120.48 27.8975 120.48C32.4079 120.48 36.7781 119.084 40.4735 116.523L24.36 133.234C20.1154 137.637 17.7299 143.608 17.7299 149.834C17.7299 156.061 20.1145 162.032 24.36 166.434C28.6047 170.836 34.3621 173.311 40.3657 173.311C44.8752 173.311 49.2463 171.914 52.9417 169.354L44.4847 178.125C40.2401 182.527 37.8546 188.498 37.8546 194.725C37.8546 200.951 40.2392 206.922 44.4847 211.325C48.7293 215.727 54.4868 218.201 60.4904 218.201C64.9999 218.201 69.371 216.805 73.0664 214.244L71.0001 216.387C66.7554 220.789 64.37 226.761 64.37 232.987C64.37 239.214 66.7546 245.185 71.0001 249.587C75.2447 253.989 81.0021 256.463 87.0058 256.463C93.0094 256.463 98.7668 253.99 103.011 249.587L124.461 227.341C121.992 231.173 120.646 235.707 120.646 240.384C120.646 246.61 123.031 252.582 127.276 256.984C131.521 261.386 137.278 263.86 143.282 263.86C149.286 263.86 155.043 261.387 159.288 256.984L191.879 223.183C189.409 227.015 188.064 231.549 188.064 236.225C188.064 242.452 190.448 248.423 194.694 252.825C198.938 257.228 204.696 259.702 210.7 259.702C216.703 259.702 222.461 257.229 226.705 252.825L277.443 200.204C281.688 195.802 284.073 189.83 284.073 183.604C284.073 177.377 281.689 171.406 277.443 167.004C273.198 162.602 267.441 160.128 261.437 160.128C256.928 160.128 252.557 161.524 248.861 164.084L259.482 153.069C263.727 148.667 266.112 142.696 266.112 136.469C266.112 130.243 263.728 124.271 259.482 119.869C255.238 115.467 249.48 112.993 243.477 112.993C238.967 112.993 234.596 114.389 230.901 116.95L252.35 94.7033C256.595 90.3011 258.981 84.3299 258.981 78.1034C258.981 71.8769 256.596 65.9057 252.35 61.5034C248.106 57.1012 242.348 54.6272 236.345 54.6272C231.835 54.6272 227.464 56.0236 223.769 58.5839L237.429 44.4166C241.673 40.0144 244.059 34.0432 244.059 27.8167C244.059 21.5902 241.674 15.619 237.429 11.2167C233.184 6.81451 227.427 4.34045 221.423 4.34045C215.42 4.34045 209.662 6.81363 205.417 11.2167L174.99 42.7737C177.46 38.9411 178.805 34.4077 178.805 29.7308C178.805 23.5043 176.421 17.5331 172.175 13.1308C167.931 8.7286 162.173 6.25454 156.17 6.25454C150.166 6.25454 144.408 8.72772 140.164 13.1308L97.4552 57.4252C99.9247 53.5926 101.271 49.0592 101.271 44.3814C101.271 38.1549 98.8865 32.1837 94.641 27.7815C90.3964 23.3792 84.6389 20.9052 78.6353 20.9052C72.6317 20.9052 66.8743 23.3784 62.6297 27.7815L11.8918 80.4031C7.6472 84.8054 5.26172 90.7765 5.26172 97.0031C5.26172 103.23 7.64636 109.201 11.8918 113.603V113.604Z" fill="white"/>
<path d="M263.042 180.704L261.476 182.328C260.863 182.963 260.863 183.992 261.476 184.627C262.088 185.262 263.08 185.262 263.692 184.627L265.258 183.003L266.825 184.627C267.437 185.262 268.429 185.262 269.041 184.627C269.653 183.992 269.653 182.963 269.041 182.328L267.475 180.704L269.041 179.079C269.653 178.445 269.653 177.415 269.041 176.781C268.735 176.463 268.334 176.304 267.932 176.304C267.531 176.304 267.13 176.463 266.824 176.781L265.258 178.405L263.691 176.781C263.385 176.463 262.984 176.304 262.583 176.304C262.181 176.304 261.78 176.463 261.474 176.781C260.862 177.415 260.862 178.445 261.474 179.079L263.04 180.704H263.042Z" fill="white"/>
<path d="M59.6076 248.66L58.0413 250.284C57.4292 250.919 57.4292 251.948 58.0413 252.583C58.6534 253.218 59.6458 253.218 60.2579 252.583L61.8241 250.959L63.3904 252.583C64.0025 253.218 64.9949 253.218 65.607 252.583C66.219 251.948 66.219 250.919 65.607 250.284L64.0407 248.66L65.607 247.035C66.219 246.4 66.219 245.371 65.607 244.736C65.3005 244.419 64.8998 244.26 64.4983 244.26C64.0967 244.26 63.696 244.419 63.3896 244.736L61.8233 246.361L60.257 244.736C59.9506 244.419 59.5499 244.26 59.1483 244.26C58.7468 244.26 58.3461 244.419 58.0396 244.736C57.4275 245.371 57.4275 246.4 58.0396 247.035L59.6059 248.66H59.6076Z" fill="white"/>
<path d="M19.5317 104.681L17.9654 106.305C17.3533 106.94 17.3533 107.969 17.9654 108.604C18.5775 109.239 19.5699 109.239 20.1819 108.604L21.7482 106.98L23.3145 108.604C23.9266 109.239 24.919 109.239 25.531 108.604C26.1431 107.969 26.1431 106.94 25.531 106.305L23.9648 104.681L25.531 103.056C26.1431 102.422 26.1431 101.392 25.531 100.758C25.2246 100.44 24.8239 100.281 24.4223 100.281C24.0208 100.281 23.6201 100.44 23.3136 100.758L21.7474 102.382L20.1811 100.758C19.8746 100.44 19.4739 100.281 19.0724 100.281C18.6709 100.281 18.2702 100.44 17.9637 100.758C17.3516 101.392 17.3516 102.422 17.9637 103.056L19.53 104.681H19.5317Z" fill="white"/>
<path d="M208.045 21.1929L206.478 22.8173C205.866 23.4521 205.866 24.4813 206.478 25.1161C207.09 25.7509 208.083 25.7509 208.695 25.1161L210.261 23.4917L211.827 25.1161C212.44 25.7509 213.432 25.7509 214.044 25.1161C214.656 24.4813 214.656 23.4521 214.044 22.8173L212.478 21.1929L214.044 19.5684C214.656 18.9336 214.656 17.9044 214.044 17.2696C213.737 16.9518 213.337 16.7933 212.935 16.7933C212.534 16.7933 212.133 16.9518 211.827 17.2696L210.26 18.894L208.694 17.2696C208.388 16.9518 207.987 16.7933 207.585 16.7933C207.184 16.7933 206.783 16.9518 206.477 17.2696C205.865 17.9044 205.865 18.9336 206.477 19.5684L208.043 21.1929H208.045Z" fill="white"/>
<path d="M179.368 250.926C181.893 250.926 183.947 253.057 183.947 255.676C183.947 258.294 181.893 260.425 179.368 260.425C176.844 260.425 174.789 258.294 174.789 255.676C174.789 253.057 176.844 250.926 179.368 250.926ZM179.368 257.173C180.165 257.173 180.812 256.501 180.812 255.676C180.812 254.85 180.165 254.178 179.368 254.178C178.572 254.178 177.924 254.85 177.924 255.676C177.924 256.501 178.572 257.173 179.368 257.173Z" fill="white"/>
<path d="M265.67 99.6045C268.195 99.6045 270.249 101.735 270.249 104.354C270.249 106.972 268.195 109.103 265.67 109.103C263.145 109.103 261.091 106.972 261.091 104.354C261.091 101.735 263.145 99.6045 265.67 99.6045ZM265.67 105.851C266.466 105.851 267.114 105.179 267.114 104.354C267.114 103.528 266.466 102.856 265.67 102.856C264.874 102.856 264.226 103.528 264.226 104.354C264.226 105.179 264.874 105.851 265.67 105.851Z" fill="white"/>
<path d="M73.9778 23.3784C76.5025 23.3784 78.5569 25.509 78.5569 28.1275C78.5569 30.7459 76.5025 32.8766 73.9778 32.8766C71.4531 32.8766 69.3987 30.7459 69.3987 28.1275C69.3987 25.509 71.4531 23.3784 73.9778 23.3784ZM73.9778 29.6251C74.7741 29.6251 75.4218 28.9533 75.4218 28.1275C75.4218 27.3016 74.7741 26.6299 73.9778 26.6299C73.1815 26.6299 72.5338 27.3016 72.5338 28.1275C72.5338 28.9533 73.1815 29.6251 73.9778 29.6251Z" fill="white"/>
<path d="M29.2678 175.763C31.7925 175.763 33.8469 177.894 33.8469 180.512C33.8469 183.13 31.7925 185.261 29.2678 185.261C26.7431 185.261 24.6887 183.13 24.6887 180.512C24.6887 177.894 26.7431 175.763 29.2678 175.763ZM29.2678 182.01C30.0641 182.01 30.7119 181.338 30.7119 180.512C30.7119 179.686 30.0641 179.014 29.2678 179.014C28.4715 179.014 27.8238 179.686 27.8238 180.512C27.8238 181.338 28.4715 182.01 29.2678 182.01Z" fill="white"/>
<path d="M11.8926 113.602C16.1372 118.004 21.8946 120.478 27.8982 120.478C32.4086 120.478 36.7789 119.082 40.4742 116.52L24.3608 133.232C20.1161 137.634 17.7306 143.605 17.7306 149.832C17.7306 156.059 20.1153 162.03 24.3608 166.432C28.6054 170.834 34.3628 173.308 40.3664 173.308C44.8759 173.308 49.2471 171.912 52.9424 169.352L44.4854 178.123C40.2408 182.525 37.8553 188.496 37.8553 194.722C37.8553 200.949 40.2399 206.92 44.4854 211.322C48.7301 215.725 54.4875 218.199 60.4911 218.199C65.0006 218.199 69.3717 216.802 73.0671 214.242L71.0008 216.385C66.7562 220.787 64.3707 226.758 64.3707 232.985C64.3707 239.211 66.7553 245.183 71.0008 249.585C75.2455 253.987 81.0029 256.461 87.0065 256.461C93.0101 256.461 98.7675 253.988 103.012 249.585L124.462 227.339C121.992 231.171 120.647 235.705 120.647 240.382C120.647 246.608 123.032 252.579 127.277 256.981C131.522 261.384 137.279 263.858 143.283 263.858C149.286 263.858 155.044 261.385 159.288 256.981L191.88 223.18C189.41 227.013 188.064 231.546 188.064 236.223C188.064 242.45 190.449 248.421 194.695 252.823C198.939 257.225 204.697 259.699 210.7 259.699C216.704 259.699 222.461 257.226 226.706 252.823L277.444 200.201C281.688 195.799 284.074 189.828 284.074 183.602C284.074 177.375 281.689 171.404 277.444 167.002C273.199 162.599 267.442 160.125 261.438 160.125C256.929 160.125 252.557 161.522 248.862 164.082L259.483 153.067C263.728 148.665 266.113 142.693 266.113 136.467C266.113 130.24 263.728 124.269 259.483 119.867C255.238 115.465 249.481 112.991 243.477 112.991C238.968 112.991 234.597 114.387 230.901 116.947L252.351 94.7011C256.596 90.2989 258.981 84.3277 258.981 78.1011C258.981 71.8746 256.597 65.9034 252.351 61.5012C248.107 57.099 242.349 54.6249 236.345 54.6249C231.836 54.6249 227.465 56.0213 223.769 58.5816L237.43 44.4144C241.674 40.0121 244.06 34.0409 244.06 27.8144C244.06 21.5879 241.675 15.6167 237.43 11.2145C233.185 6.81225 227.428 4.3382 221.424 4.3382C215.42 4.3382 209.663 6.81137 205.418 11.2145L174.991 42.7714C177.461 38.9389 178.806 34.4054 178.806 29.7285C178.806 23.502 176.421 17.5308 172.176 13.1286C167.931 8.72634 162.174 6.25229 156.17 6.25229C150.167 6.25229 144.409 8.72546 140.165 13.1286L97.4559 57.423C99.9255 53.5904 101.272 49.057 101.272 44.3791C101.272 38.1526 98.8872 32.1814 94.6417 27.7792C90.3971 23.377 84.6397 20.9029 78.6361 20.9029C72.6325 20.9029 66.875 23.3761 62.6304 27.7792L11.8926 80.4009C7.64794 84.8031 5.26245 90.7743 5.26245 97.0008C5.26245 103.227 7.64709 109.199 11.8926 113.601V113.602Z" fill="#F2F5F8"/>
<path d="M263.041 180.702L261.475 182.326C260.862 182.961 260.862 183.99 261.475 184.625C262.087 185.26 263.079 185.26 263.691 184.625L265.257 183L266.824 184.625C267.436 185.26 268.428 185.26 269.04 184.625C269.652 183.99 269.652 182.961 269.04 182.326L267.474 180.702L269.04 179.077C269.652 178.442 269.652 177.413 269.04 176.778C268.734 176.46 268.333 176.302 267.931 176.302C267.53 176.302 267.129 176.46 266.823 176.778L265.257 178.403L263.69 176.778C263.384 176.46 262.983 176.302 262.582 176.302C262.18 176.302 261.779 176.46 261.473 176.778C260.861 177.413 260.861 178.442 261.473 179.077L263.039 180.702H263.041Z" fill="#485A6F"/>
<path d="M129.926 257.726L128.36 259.351C127.748 259.986 127.748 261.015 128.36 261.65C128.972 262.284 129.964 262.284 130.576 261.65L132.143 260.025L133.709 261.65C134.321 262.284 135.313 262.284 135.925 261.65C136.538 261.015 136.538 259.986 135.925 259.351L134.359 257.726L135.925 256.102C136.538 255.467 136.538 254.438 135.925 253.803C135.619 253.485 135.218 253.327 134.817 253.327C134.415 253.327 134.015 253.485 133.708 253.803L132.142 255.427L130.576 253.803C130.269 253.485 129.868 253.327 129.467 253.327C129.065 253.327 128.665 253.485 128.358 253.803C127.746 254.438 127.746 255.467 128.358 256.102L129.924 257.726H129.926Z" fill="#485A6F"/>
<path d="M2.95305 86.7776L1.38678 88.4021C0.774706 89.0369 0.774706 90.0661 1.38678 90.7009C1.99886 91.3357 2.99125 91.3357 3.60333 90.7009L5.1696 89.0765L6.73587 90.7009C7.34794 91.3357 8.34034 91.3357 8.95241 90.7009C9.56449 90.0661 9.56449 89.0369 8.95241 88.4021L7.38615 86.7776L8.95241 85.1532C9.56449 84.5184 9.56449 83.4892 8.95241 82.8544C8.64595 82.5365 8.24526 82.3781 7.84372 82.3781C7.44218 82.3781 7.04148 82.5365 6.73502 82.8544L5.16875 84.4788L3.60248 82.8544C3.29602 82.5365 2.89532 82.3781 2.49378 82.3781C2.09224 82.3781 1.69155 82.5365 1.38508 82.8544C0.773006 83.4892 0.773006 84.5184 1.38508 85.1532L2.95135 86.7776H2.95305Z" fill="#0277FA"/>
<path d="M157.178 4.39959L155.612 6.02401C155 6.65881 155 7.68806 155.612 8.32286C156.224 8.95766 157.217 8.95766 157.829 8.32286L159.395 6.69843L160.961 8.32286C161.573 8.95766 162.566 8.95766 163.178 8.32286C163.79 7.68806 163.79 6.65881 163.178 6.02401L161.611 4.39959L163.178 2.77517C163.79 2.14037 163.79 1.11113 163.178 0.476325C162.871 0.158483 162.471 0 162.069 0C161.668 0 161.267 0.158483 160.96 0.476325L159.394 2.10074L157.828 0.476325C157.521 0.158483 157.121 0 156.719 0C156.318 0 155.917 0.158483 155.61 0.476325C154.998 1.11113 154.998 2.14037 155.61 2.77517L157.177 4.39959H157.178Z" fill="#0277FA"/>
<path d="M265.669 99.6022C268.194 99.6022 270.248 101.733 270.248 104.351C270.248 106.97 268.194 109.1 265.669 109.1C263.144 109.1 261.09 106.97 261.09 104.351C261.09 101.733 263.144 99.6022 265.669 99.6022ZM265.669 105.849C266.465 105.849 267.113 105.177 267.113 104.351C267.113 103.525 266.465 102.854 265.669 102.854C264.873 102.854 264.225 103.525 264.225 104.351C264.225 105.177 264.873 105.849 265.669 105.849Z" fill="#0FCE80"/>
<path d="M29.2671 175.761C31.7918 175.761 33.8462 177.891 33.8462 180.51C33.8462 183.128 31.7918 185.259 29.2671 185.259C26.7424 185.259 24.688 183.128 24.688 180.51C24.688 177.891 26.7424 175.761 29.2671 175.761ZM29.2671 182.007C30.0634 182.007 30.7111 181.336 30.7111 180.51C30.7111 179.684 30.0634 179.012 29.2671 179.012C28.4708 179.012 27.8231 179.684 27.8231 180.51C27.8231 181.336 28.4708 182.007 29.2671 182.007Z" fill="#0FCE80"/>
<g clip-path="url(#clip0_202_473)">
<path d="M40.7694 164.739C39.3209 165.942 40.0171 168.292 41.881 168.528C54.3114 170.069 66.7417 171.227 79.1047 173.318C85.4153 174.386 91.6922 175.612 97.9355 177.04C103.853 178.389 109.67 180.312 115.643 181.403C116.721 181.594 117.754 180.863 117.912 179.784C121.976 152.449 151.441 131.164 187.104 131.164C200.533 131.164 213.087 134.189 223.732 139.418C225.596 140.328 227.853 139.687 228.898 137.9C234.714 128.039 237.982 117.076 237.982 105.528C237.982 62.5758 193.145 27.6406 138.034 27.6406C82.9225 27.6406 38.0745 62.5758 38.0745 105.517C38.0745 120.932 43.8461 135.786 54.7942 148.593L54.7044 148.66C55.3669 149.357 55.423 150.437 54.8391 151.201C52.3912 154.361 46.3277 160.107 40.7694 164.739ZM72.2214 70.9639H201.027C201.443 70.9639 201.769 71.3012 201.769 71.706V77.3055C201.769 77.7215 201.432 78.0476 201.027 78.0476H72.2214C71.8059 78.0476 71.4803 77.7103 71.4803 77.3055V71.706C71.4803 71.29 71.8171 70.9639 72.2214 70.9639ZM72.2214 97.2524H201.027C201.443 97.2524 201.769 97.5897 201.769 97.9945V103.594C201.769 104.01 201.432 104.336 201.027 104.336H72.2214C71.8059 104.336 71.4803 103.999 71.4803 103.594V97.9945C71.4803 97.5785 71.8171 97.2524 72.2214 97.2524ZM72.2214 123.541H139.718C140.133 123.541 140.459 123.878 140.459 124.283V129.883C140.459 130.299 140.122 130.625 139.718 130.625H72.2214C71.8059 130.625 71.4803 130.287 71.4803 129.883V124.283C71.4803 123.867 71.8171 123.541 72.2214 123.541Z" fill="#485A6F"/>
<path d="M123.122 186.26C123.122 213.482 151.834 235.633 187.104 235.633C194.908 235.633 202.577 234.531 209.898 232.361C210.864 232.08 211.908 232.316 212.649 233.002L226.955 246.236C227.887 247.102 229.392 246.438 229.392 245.168V224.704C229.392 223.782 229.841 222.916 230.582 222.376C243.607 213.032 251.074 199.865 251.074 186.249C251.074 159.027 222.362 136.876 187.104 136.876C151.845 136.876 123.122 159.027 123.122 186.249V186.26Z" fill="#0277FA"/>
<path d="M200.881 70.9639H72.3785C71.8824 70.9639 71.4802 71.3666 71.4802 71.8634V77.1481C71.4802 77.6449 71.8824 78.0476 72.3785 78.0476H200.881C201.378 78.0476 201.78 77.6449 201.78 77.1481V71.8634C201.78 71.3666 201.378 70.9639 200.881 70.9639Z" fill="#C4E0FF"/>
<path d="M200.96 97.2524H72.2999C71.8472 97.2524 71.4802 97.6199 71.4802 98.0733V103.515C71.4802 103.969 71.8472 104.336 72.2999 104.336H200.96C201.413 104.336 201.78 103.969 201.78 103.515V98.0733C201.78 97.6199 201.413 97.2524 200.96 97.2524Z" fill="#C4E0FF"/>
<path d="M139.583 123.541H72.3561C71.8724 123.541 71.4802 123.934 71.4802 124.418V129.748C71.4802 130.232 71.8724 130.625 72.3561 130.625H139.583C140.067 130.625 140.459 130.232 140.459 129.748V124.418C140.459 123.934 140.067 123.541 139.583 123.541Z" fill="#C4E0FF"/>
</g>
<defs>
<clipPath id="clip0_202_473">
<rect width="213" height="219" fill="white" transform="translate(38.0745 27.6406)"/>
</clipPath>
</defs>
</svg>
