<svg width="45" height="44" viewBox="0 0 45 44" fill="none" xmlns="http://www.w3.org/2000/svg">
<rect x="0.32666" width="44" height="44" rx="6" fill="#FF5805" fill-opacity="0.12"/>
<g clip-path="url(#clip0_2751_3448)">
<path d="M10.3267 16.3197C10.3267 15.0347 10.6948 13.9411 11.4858 13.1619L12.8494 14.5289C11.3358 16.0463 12.6585 20.7624 16.9812 25.0957C21.3039 29.429 26.0085 30.755 27.5221 29.2376L28.8858 30.6046C26.3221 33.1745 20.4994 31.3428 15.6176 26.4627C12.2358 23.0589 10.3267 19.2177 10.3267 16.3197Z" fill="#009A46"/>
<path d="M18.9312 31.7802C17.6494 31.7802 16.5585 31.4111 15.7812 30.6183L17.1449 29.2513C18.6585 30.7687 23.3631 29.4427 27.6858 25.1094C32.0085 20.776 33.3313 16.0599 31.8176 14.5426L33.1813 13.1756C35.7449 15.7455 33.9176 21.5825 29.0494 26.4763C25.654 29.8664 21.8085 31.7802 18.9312 31.7802Z" fill="#FF5805"/>
<path d="M29.4857 24.5215C28.6539 22.1293 26.963 19.5731 24.7266 17.3312C19.8448 12.4374 14.0221 10.6193 11.4585 13.1756C11.2812 13.367 11.4448 13.8181 11.813 14.1872C12.1812 14.5563 12.6448 14.7203 12.8221 14.5426C14.3357 13.0252 19.0403 14.3512 23.363 18.6845C25.4085 20.735 26.9357 23.0315 27.6721 25.1504C28.313 27.0095 28.2585 28.5131 27.5085 29.265C27.3312 29.4427 27.4812 29.8938 27.863 30.2765C28.2448 30.6593 28.6948 30.8097 28.8721 30.632C30.1812 29.306 30.3994 27.1325 29.4857 24.5215Z" fill="#F5AFCB"/>
<path d="M33.1676 13.1756C31.8585 11.8633 29.6903 11.6446 27.0857 12.5468C24.6994 13.3807 22.1494 15.0757 19.913 17.3176C15.0312 22.2114 13.2176 28.0484 15.7812 30.6183C15.9585 30.796 16.4221 30.6456 16.7903 30.2629C17.1585 29.8801 17.3221 29.429 17.1448 29.2513C15.6312 27.734 16.9539 23.0179 21.2767 18.6845C23.3221 16.6341 25.613 15.103 27.713 14.3649C29.5676 13.7224 31.0676 13.7771 31.8176 14.5289C31.9948 14.7066 32.4448 14.5563 32.8267 14.1735C33.2085 13.7907 33.3585 13.367 33.1676 13.1756Z" fill="#FF9B00"/>
</g>
<defs>
<clipPath id="clip0_2751_3448">
<rect width="24" height="24" fill="white" transform="translate(10.3267 10)"/>
</clipPath>
</defs>
</svg>
