<svg width="45" height="44" viewBox="0 0 45 44" fill="none" xmlns="http://www.w3.org/2000/svg">
<rect x="0.32666" width="44" height="44" rx="6" fill="#0070E0" fill-opacity="0.12"/>
<path d="M29.8347 15.4995C29.8926 12.4872 27.407 10.1748 23.9894 10.1748H16.9212C16.7565 10.1749 16.5971 10.2337 16.4719 10.3408C16.3467 10.4479 16.2638 10.5961 16.2381 10.7589L13.4056 28.4568C13.3929 28.537 13.3978 28.619 13.4198 28.6971C13.4419 28.7752 13.4806 28.8477 13.5333 28.9094C13.586 28.9711 13.6515 29.0207 13.7253 29.0547C13.799 29.0887 13.8792 29.1063 13.9604 29.1063H18.1483L17.4934 33.205C17.4807 33.2852 17.4856 33.3672 17.5076 33.4454C17.5297 33.5236 17.5685 33.596 17.6213 33.6578C17.6741 33.7195 17.7396 33.7691 17.8134 33.803C17.8872 33.837 17.9675 33.8546 18.0487 33.8545H21.4599C21.625 33.8545 21.7717 33.795 21.8967 33.6883C22.0218 33.5812 22.0423 33.4334 22.0678 33.2705L23.0692 27.3786C23.0946 27.2162 23.1774 27.0051 23.303 26.8979C23.428 26.7907 23.5374 26.7323 23.7019 26.7317H25.7902C29.137 26.7317 31.9771 24.3533 32.4962 21.0444C32.8632 18.6952 31.8559 16.5588 29.8347 15.4995Z" fill="#001C64"/>
<path d="M19.0543 22.5795L18.0112 29.194L17.3563 33.3425C17.3436 33.4227 17.3484 33.5047 17.3705 33.5829C17.3926 33.6611 17.4314 33.7335 17.4842 33.7953C17.537 33.857 17.6025 33.9066 17.6763 33.9405C17.7501 33.9745 17.8304 33.9921 17.9116 33.992H21.522C21.6867 33.9918 21.8459 33.9329 21.971 33.8259C22.0961 33.7188 22.1789 33.5706 22.2046 33.408L23.1561 27.378C23.1818 27.2154 23.2646 27.0673 23.3898 26.9603C23.5149 26.8534 23.6741 26.7946 23.8387 26.7945H25.9643C29.3111 26.7945 32.1507 24.3533 32.6698 21.0444C33.0379 18.6958 31.8557 16.5593 29.8345 15.4995C29.8291 15.7496 29.8075 15.9991 29.769 16.2465C29.2499 19.5548 26.4098 21.9965 23.063 21.9965H19.7368C19.5723 21.9966 19.4132 22.0553 19.288 22.1622C19.1629 22.269 19.08 22.417 19.0543 22.5795Z" fill="#0070E0"/>
<path d="M18.0107 29.194H13.8103C13.7291 29.1941 13.6489 29.1765 13.5751 29.1426C13.5013 29.1086 13.4358 29.059 13.383 28.9973C13.3303 28.9355 13.2916 28.8631 13.2696 28.7849C13.2475 28.7067 13.2427 28.6247 13.2555 28.5445L16.0875 10.5835C16.1132 10.4208 16.1961 10.2726 16.3214 10.1656C16.4466 10.0587 16.6059 9.99992 16.7706 10H23.9898C27.4069 10 29.8925 12.4872 29.8346 15.4995C28.9842 15.0535 27.985 14.7985 26.89 14.7985H20.8714C20.7068 14.7987 20.5477 14.8575 20.4226 14.9645C20.2975 15.0714 20.2146 15.2195 20.1889 15.382L19.0549 22.5795L18.0107 29.194Z" fill="#003087"/>
</svg>
