<svg width="45" height="44" viewBox="0 0 45 44" fill="none" xmlns="http://www.w3.org/2000/svg">
<rect x="0.32666" width="44" height="44" rx="6" fill="#00C3F7" fill-opacity="0.12"/>
<g clip-path="url(#clip0_2751_3434)">
<path d="M31.7975 10H11.5643C10.9186 10 10.3267 10.5959 10.3267 11.3002V13.5756C10.3267 14.2799 10.9186 14.8758 11.5643 14.8758H31.7975C32.4971 14.8758 33.0352 14.2799 33.089 13.5756V11.3002C33.089 10.5959 32.4971 10 31.7975 10ZM31.7975 22.7856H11.5643C11.2415 22.7856 10.9186 22.9481 10.6495 23.1648C10.4343 23.3815 10.3267 23.7065 10.3267 24.0858V26.3612C10.3267 27.0655 10.9186 27.6614 11.5643 27.6614H31.7975C32.4971 27.6614 33.0352 27.1196 33.089 26.3612V24.0858C33.089 23.3273 32.4971 22.7856 31.7975 22.7856ZM22.9724 29.1783H11.5643C11.2415 29.1783 10.9186 29.2867 10.7033 29.5576C10.4881 29.7743 10.3267 30.0993 10.3267 30.4786V32.7539C10.3267 33.4582 10.9186 34.0542 11.5643 34.0542H22.9186C23.6181 34.0542 24.1563 33.4582 24.1563 32.7539V30.4244C24.2101 29.7201 23.672 29.1783 22.9724 29.1783ZM33.089 16.3928H11.5643C11.2415 16.3928 10.9186 16.5011 10.7033 16.772C10.4881 16.9887 10.3267 17.3138 10.3267 17.693V19.9684C10.3267 20.6727 10.9186 21.2686 11.5643 21.2686H33.0352C33.7347 21.2686 34.2728 20.6727 34.2728 19.9684V17.693C34.3267 16.9887 33.7885 16.3928 33.089 16.3928Z" fill="#00C3F7"/>
</g>
<defs>
<clipPath id="clip0_2751_3434">
<rect width="24" height="24" fill="white" transform="translate(10.3267 10)"/>
</clipPath>
</defs>
</svg>
