<svg width="45" height="44" viewBox="0 0 45 44" fill="none" xmlns="http://www.w3.org/2000/svg">
<rect x="0.32666" width="44" height="44" rx="6" fill="#635BFF" fill-opacity="0.12"/>
<path fill-rule="evenodd" clip-rule="evenodd" d="M21.089 17.1455C21.089 16.12 21.9412 15.7164 23.3579 15.7164C25.3944 15.7164 27.9621 16.3273 29.9985 17.4073V11.2109C27.7739 10.3382 25.5825 10 23.369 10C17.9347 10 14.3267 12.7927 14.3267 17.4618C14.3267 24.7382 24.4979 23.5818 24.4979 26.7236C24.4979 27.9345 23.4243 28.3273 21.9302 28.3273C19.7056 28.3273 16.8722 27.4327 14.6255 26.2218V32.4945C17.1157 33.5527 19.6281 34 21.9302 34C27.4972 34 31.3267 31.2836 31.3267 26.56C31.2824 18.7055 21.089 20.1018 21.089 17.1455Z" fill="#635BFF"/>
</svg>
